<svg width="1080" height="920" viewBox="0 0 1080 920" fill="none" xmlns="http://www.w3.org/2000/svg">
<g clip-path="url(#clip0_96_56)">
<rect width="1080" height="920" fill="#462181"/>
<g filter="url(#filter0_f_96_56)">
<ellipse cx="-95.5" cy="78" rx="553.5" ry="504" fill="#D9D9D9" fill-opacity="0.59"/>
</g>
<rect x="934" y="696" width="13" height="154" rx="6.5" fill="white" fill-opacity="0.1"/>
<rect x="495" y="-43" width="13" height="154" rx="6.5" fill="white" fill-opacity="0.1"/>
<rect x="790" y="11" width="13" height="154" rx="6.5" fill="white" fill-opacity="0.1"/>
<rect x="231" y="60" width="13" height="154" rx="6.5" fill="white" fill-opacity="0.1"/>
<rect x="621" y="643" width="13" height="154" rx="6.5" fill="white" fill-opacity="0.1"/>
<rect x="76" y="527" width="13" height="154" rx="6.5" fill="white" fill-opacity="0.1"/>
<rect x="981" y="288" width="13" height="154" rx="6.5" fill="white" fill-opacity="0.1"/>
<rect x="286" y="744" width="13" height="154" rx="6.5" fill="white" fill-opacity="0.1"/>
<g filter="url(#filter1_f_96_56)">
<path d="M447.273 336.938L267 537.136L328.808 516.617L386.495 459.497L349.926 509.408L397.312 493.88L435.427 455.892L411.218 488.889L451.909 475.579L508.566 484.452C516.587 537.084 523.288 566.118 536.895 617.548C533.189 568.159 535.029 551.868 540.758 529.927C547.189 552.934 547.761 572.743 544.621 617.548C558.521 567.546 564.755 538.429 572.949 484.452L629.091 475.579L670.297 488.889L645.573 455.06L683.688 493.88L731.589 509.408L694.505 458.942L752.707 516.617L814 536.582L634.242 336.938L571.919 362.448C563.541 327.936 556.759 314.585 540.758 302C524.77 314.867 517.975 328.18 509.596 362.448L447.273 336.938Z" fill="white" fill-opacity="0.29"/>
</g>
<path d="M463.489 351.296L315.23 504.157L366.062 488.49L413.505 444.876L383.429 482.985L422.4 471.129L453.746 442.124L433.837 467.318L467.301 457.156L513.897 463.931C520.493 504.118 526.005 526.286 537.195 565.556C534.147 527.844 535.661 515.405 540.371 498.652C545.661 516.219 546.131 531.345 543.548 565.556C554.98 527.377 560.108 505.144 566.846 463.931L613.018 457.156L646.906 467.318L626.573 441.488L657.919 471.129L697.314 482.985L666.815 444.453L714.681 488.49L765.089 503.734L617.254 351.296L565.999 370.775C559.109 344.423 553.532 334.229 540.371 324.62C527.223 334.445 521.635 344.609 514.744 370.775L463.489 351.296Z" fill="#774BBE"/>
</g>
<defs>
<filter id="filter0_f_96_56" x="-1518" y="-1295" width="2845" height="2746" filterUnits="userSpaceOnUse" color-interpolation-filters="sRGB">
<feFlood flood-opacity="0" result="BackgroundImageFix"/>
<feBlend mode="normal" in="SourceGraphic" in2="BackgroundImageFix" result="shape"/>
<feGaussianBlur stdDeviation="434.5" result="effect1_foregroundBlur_96_56"/>
</filter>
<filter id="filter1_f_96_56" x="242" y="277" width="597" height="365.548" filterUnits="userSpaceOnUse" color-interpolation-filters="sRGB">
<feFlood flood-opacity="0" result="BackgroundImageFix"/>
<feBlend mode="normal" in="SourceGraphic" in2="BackgroundImageFix" result="shape"/>
<feGaussianBlur stdDeviation="12.5" result="effect1_foregroundBlur_96_56"/>
</filter>
<clipPath id="clip0_96_56">
<rect width="1080" height="920" fill="white"/>
</clipPath>
</defs>
</svg>
